<svg width="64" height="64" viewBox="0 0 64 64" fill="none" xmlns="http://www.w3.org/2000/svg">
<path d="M57.7 15.35L33.55 1.44998C33.15 1.19998 32.6 1.09998 32 1.09998C31.4 1.09998 30.85 1.24998 30.45 1.44998L6.45 15.4C5.6 15.9 5 17.15 5 18.1V45.95C5 46.5 5.1 47.15 5.5 47.7L58.9 16.7C58.6 16.1 58.15 15.65 57.7 15.35Z" fill="#1A42B9"/>
<path d="M5.35001 47.65C5.60001 48.05 5.95001 48.4 6.30001 48.6L30.4 62.55C30.8 62.8 31.35 62.9 31.95 62.9C32.55 62.9 33.1 62.75 33.5 62.55L57.5 48.6C58.35 48.1 58.95 46.85 58.95 45.9V18.05C58.95 17.6 58.9 17.1 58.65 16.65L5.35001 47.65Z" fill="#133086"/>
<path d="M42.65 38.05C40.55 41.75 36.55 44.25 32 44.25C25.25 44.25 19.75 38.75 19.75 32C19.75 25.25 25.25 19.75 32 19.75C36.55 19.75 40.55 22.25 42.65 26L49.15 22.25C45.75 16.3 39.35 12.25 32 12.25C21.1 12.25 12.25 21.1 12.25 32C12.25 42.9 21.1 51.75 32 51.75C39.3 51.75 45.7 47.75 49.1 41.85L42.65 38.05ZM48.5 33.1L48.95 30.95H46.85V28.6H49.4L50 25.5H52.45L51.85 28.55H53.75L54.35 25.5H56.75L56.15 28.55H57.35V30.9H55.7L55.25 33.05H57.35V35.4H54.8L54.2 38.4H51.75L52.35 35.4H50.45L49.85 38.4H47.45L48.05 35.4H46.85V33.05H48.5V33.1ZM50.9 33.1H52.8L53.25 30.95H51.35L50.9 33.1Z" fill="white"/>
</svg>
