<svg width="66" height="69" viewBox="0 0 66 69" fill="none" xmlns="http://www.w3.org/2000/svg">
<g clip-path="url(#clip0_21_255)">
<path d="M64.3175 31.4694L35.8983 1.75956C34.2628 0.0485723 31.6083 0.0485723 29.9702 1.75956L24.0694 7.92967L31.5552 15.7558C33.2955 15.1418 35.2899 15.5536 36.6764 17.0032C38.0701 18.4619 38.461 20.5648 37.8593 22.39L45.0739 29.9331C46.8193 29.304 48.8338 29.7105 50.227 31.1703C52.1761 33.2063 52.1761 36.507 50.227 38.5441C49.7639 39.0286 49.2139 39.4129 48.6086 39.6751C48.0033 39.9373 47.3546 40.0722 46.6994 40.0722C46.0442 40.0722 45.3954 39.9373 44.7901 39.6751C44.1849 39.4129 43.6349 39.0286 43.1717 38.5441C42.4758 37.8161 42.0015 36.8892 41.8083 35.88C41.6152 34.8708 41.7119 33.8245 42.0864 32.8726L35.3585 25.8389L35.3574 44.3509C35.8456 44.6022 36.2913 44.935 36.6769 45.3363C38.625 47.3723 38.625 50.6719 36.6769 52.7123C34.7284 54.7483 31.5702 54.7483 29.6237 52.7123C27.6757 50.6725 27.6757 47.3729 29.6237 45.3363C30.0904 44.8476 30.6455 44.4609 31.2567 44.1989V25.5155C30.645 25.2542 30.0898 24.8672 29.6237 24.3775C28.148 22.8358 27.7927 20.5718 28.5496 18.6764L21.1695 10.9608L1.68301 31.332C0.896842 32.1541 0.4552 33.2691 0.4552 34.4316C0.4552 35.5941 0.896842 36.709 1.68301 37.5312L30.1027 67.2411C31.7393 68.9521 34.3927 68.9521 36.0319 67.2411L64.318 37.6692C65.104 36.8468 65.5455 35.7318 65.5454 34.5692C65.5453 33.4067 65.1037 32.2917 64.3175 31.4694Z" fill="#1A42B9"/>
</g>
<defs>
<clipPath id="clip0_21_255">
<rect width="66" height="69" fill="white"/>
</clipPath>
</defs>
</svg>
