<svg width="68" height="69" viewBox="0 0 68 69" fill="none" xmlns="http://www.w3.org/2000/svg">
<path d="M62.1286 52.7241C58.4826 52.6233 55.6983 52.9678 53.3178 53.9861C52.6415 54.2755 51.562 54.2836 51.4515 55.1434C51.8234 55.5386 51.8813 56.1294 52.1767 56.6156C52.7451 57.5482 53.7046 58.7999 54.5609 59.4554C55.497 60.1723 56.4612 60.9383 57.4642 61.5588C59.2481 62.6623 61.2398 63.293 62.9573 64.3986C63.9699 65.0509 64.9755 65.8718 65.9631 66.6071C66.4519 66.971 66.7797 67.5365 67.4145 67.7645V67.6599C67.0809 67.2287 66.9948 66.6368 66.6888 66.1867L65.341 64.8191C64.0235 63.0445 62.3506 61.4855 60.5725 60.1912C59.1546 59.1584 55.9815 57.7633 55.3902 56.0895L55.2866 55.9844C56.2917 55.869 57.4685 55.5003 58.3965 55.2475C59.9552 54.8238 61.3482 54.9332 62.9573 54.5116L65.1339 53.8804V53.4599C64.3205 52.6131 63.7404 51.4918 62.8537 50.7253C60.5322 48.72 57.9992 46.7163 55.3907 45.0452C53.9436 44.1191 52.156 43.5169 50.6222 42.7315C50.1064 42.4668 49.2001 42.3294 48.8596 41.8895C48.0536 40.848 47.6154 39.5273 46.9943 38.3139C45.6933 35.7711 44.4156 32.9944 43.2628 30.3191C42.4766 28.4949 41.9629 26.6966 40.9822 25.06C36.2753 17.2074 31.2093 12.4685 23.3611 7.80996C21.6909 6.81917 19.6801 6.42835 17.5551 5.91624C16.4156 5.8467 15.275 5.77608 14.1349 5.70546C13.4385 5.41113 12.7149 4.54702 12.062 4.12763C9.46205 2.46085 2.79274 -1.16435 0.867493 3.60204C-0.348538 6.61055 2.6849 9.54521 3.76918 11.0702C4.53099 12.1386 5.50584 13.338 6.04984 14.5407C6.4079 15.3315 6.46952 16.1245 6.77606 16.9605C7.52884 19.0208 8.18493 21.2623 9.15977 23.1657C9.65224 24.1295 10.1952 25.1441 10.8183 26.0055C11.1998 26.5343 11.8548 26.7672 11.9579 27.5833C11.3182 28.4922 11.2816 29.9034 10.9219 31.0549C9.30162 36.238 9.91309 42.6808 12.2697 46.5168C12.9922 47.6952 14.6959 50.2207 17.0377 49.2515C19.0862 48.4051 18.6288 45.781 19.2147 43.4663C19.347 42.9417 19.2657 42.5558 19.5255 42.2043V42.3094L21.3918 46.0958C22.7731 48.3529 25.2232 50.7113 27.3004 52.3026C28.3772 53.1279 29.2251 54.5542 30.6175 55.0372V54.9316H30.5139C30.244 54.5052 29.8217 54.3284 29.4774 53.9855C28.6662 53.1785 27.7641 52.1753 27.0937 51.2509C25.2046 48.6488 23.5354 45.8009 22.0144 42.8366C21.2877 41.4205 20.656 39.8594 20.044 38.4185C19.8081 37.8632 19.8113 37.0228 19.3194 36.7355C18.6484 37.791 17.6608 38.6449 17.1423 39.8912C16.3131 41.8836 16.2063 44.3137 15.8987 46.8332C15.717 46.899 15.7977 46.8537 15.691 46.9378C14.247 46.5847 13.7402 45.077 13.2031 43.7827C11.8463 40.5106 11.594 35.2429 12.7882 31.4764C13.0974 30.5013 14.4935 27.4329 13.9283 26.5321C13.6584 25.6341 12.768 25.1144 12.2702 24.4282C11.6535 23.5797 11.0383 22.4628 10.6106 21.4827C9.5003 18.9324 8.9818 16.0684 7.81252 13.4895C7.25312 12.2567 6.30802 11.0088 5.53187 9.91338C4.67284 8.69888 3.71021 7.80457 3.04402 6.33671C2.80709 5.81489 2.48568 4.97935 2.83631 4.44298C2.94787 4.08127 3.10618 3.93033 3.4584 3.81228C4.05977 3.34167 5.73427 3.9686 6.36009 4.2322C8.02237 4.93299 9.40999 5.60035 10.8183 6.54694C11.4936 7.00191 12.1778 7.88112 12.9949 8.12478H13.9277C15.3871 8.46492 17.0217 8.22989 18.3855 8.65036C20.7952 9.39319 22.9547 10.5495 24.9156 11.806C30.89 15.6345 35.7754 21.0833 39.117 27.5839C39.6546 28.6307 39.8873 29.6291 40.3606 30.7395C41.3158 32.9783 42.5191 35.2817 43.4695 37.4713C44.4183 39.6556 45.3427 41.8598 46.6836 43.6776C47.3885 44.6328 50.1106 45.1454 51.3485 45.6764C52.2155 46.0478 53.6366 46.4359 54.4584 46.9378C56.0272 47.8984 57.5476 49.0418 59.0197 50.094C59.7544 50.6196 62.016 51.7737 62.1286 52.7241ZM15.7935 12.6497C15.0333 12.6351 14.4956 12.7338 13.9272 12.8594V12.9645H14.0308C14.3936 13.7202 15.0338 14.2076 15.4816 14.8582C15.827 15.5951 16.1728 16.3309 16.5186 17.0667L16.6217 16.9627C17.264 16.5029 17.5578 15.7692 17.5541 14.648C17.2969 14.3736 17.2592 14.0297 17.0361 13.7019C16.7407 13.2647 16.1675 13.0162 15.7935 12.6497Z" fill="#1A42B9"/>
</svg>
